<svg xmlns="http://www.w3.org/2000/svg" aria-hidden="true" style="position:absolute;width:0;height:0;overflow:hidden">
    <defs>
        <symbol id="heart" viewBox="0 0 22 20">
            <path 
                d="M16.021 0c-1.926 0-3.768 0.884-4.968 2.274-1.2-1.389-3.053-2.274-4.968-2.274-3.411 0-6.084 2.642-6.084 5.989 0 4.116 3.758 7.474 9.453 12.568l1.6 1.442 1.6-1.432c5.695-5.095 9.453-8.453 9.453-12.579 0-3.347-2.674-5.989-6.084-5.989zM12.347 16.768l-1.295 1.126-1.295-1.137c-4.611-4.021-7.653-6.663-7.653-9.916 0-2.653 2.168-4.737 4.916-4.737 1.558 0 3.053 0.695 4.032 1.8 0.979-1.105 2.474-1.8 4.032-1.8 2.747 0 4.916 2.084 4.916 4.737 0 3.253-3.042 5.895-7.653 9.926z">
            </path>
        </symbol>
        <symbol id="icon-heart_fill" viewBox="0 0 35 32">
            <path
                d="m17.684 32-2.564-2.302C6.013 21.554 0 16.183 0 9.591 0 4.22 4.28 0 9.726 0c3.077 0 6.03 1.413 7.958 3.645C19.612 1.413 22.565 0 25.642 0c5.447 0 9.726 4.22 9.726 9.591 0 6.592-6.013 11.963-15.12 20.124l-2.564 2.284z" />
        </symbol>
        <symbol id="icon-arrow_right" viewBox="0 0 32 32">
            <path d="m17.562 16-6.6-6.6 1.885-1.885L21.332 16l-8.485 8.485-1.885-1.885 6.6-6.6z" />
        </symbol>
        <symbol id="icon-arrow_down" viewBox="0 0 32 32">
            <path d="m7.79 12.791 7.543 7.543 7.543-7.543-.943-.943-6.6 6.6-6.6-6.6-.943.943z" />
        </symbol>
        <symbol id="icon-person" viewBox="0 0 31 32">
            <path
                d="M15.543.762C7.132.762.305 7.589.305 16s6.827 15.238 15.238 15.238S30.781 24.411 30.781 16 23.954.762 15.543.762zm0 6.095c2.941 0 5.333 2.392 5.333 5.333s-2.392 5.333-5.333 5.333c-2.941 0-5.333-2.392-5.333-5.333s2.392-5.333 5.333-5.333zm0 21.334c-3.093 0-6.751-1.25-9.356-4.389a15.158 15.158 0 0 1 18.712 0c-2.606 3.139-6.263 4.389-9.356 4.389z" />
        </symbol>
        <symbol id="COCKTAILS" viewBox="0 0 117 32">
            <path fill="#000" style="fill: var(--color1, #000)"
                d="M104.982 5.443c-0.122-0.283-0.397-0.474-0.711-0.474h-5.84c0.008-0.038 0.023-0.069 0.031-0.115 0.046-0.252-0.015-0.512-0.069-0.757-0.084-0.359-0.107-0.566-0.008-0.719 0.306 0.222 0.68 0.352 1.086 0.352 1.032 0 1.865-0.833 1.865-1.865s-0.833-1.865-1.865-1.865c-1.032 0-1.865 0.833-1.865 1.865 0 0.413 0.138 0.795 0.367 1.101-0.329 0.39-0.222 0.894-0.138 1.254 0.046 0.206 0.092 0.397 0.069 0.535-0.015 0.092-0.053 0.161-0.107 0.214h-16.099c-0.313 0-0.589 0.191-0.711 0.474-0.115 0.29-0.046 0.619 0.176 0.841l11.046 10.741 1.529 0.008 11.069-10.748c0.222-0.222 0.29-0.55 0.176-0.841zM93.019 15.587c-0.015 0-0.031-0.008-0.046-0.008s-0.031 0.008-0.046 0.008l-9.349-9.089h12.277c0.046 0.199 0.13 0.397 0.206 0.566 0.076 0.176 0.161 0.359 0.168 0.489 0.031 0.42-0.336 0.68-0.91 1.040-0.107 0.069-0.214 0.138-0.313 0.206l0.321 0.474c0.092-0.061 0.191-0.13 0.298-0.191 0.55-0.344 1.231-0.78 1.17-1.567-0.015-0.229-0.115-0.459-0.214-0.68-0.053-0.122-0.099-0.229-0.13-0.329h5.932l-9.365 9.082z">
            </path>
            <path fill="#fd5103" style="fill: var(--color2, #fd5103)"
                d="M0 24.378c0-1.452 0.329-2.76 0.986-3.914 0.657-1.17 1.552-2.087 2.676-2.737 1.139-0.657 2.408-0.986 3.792-0.986 1.628 0 3.050 0.39 4.258 1.177 1.215 0.787 2.095 1.896 2.653 3.341h-2.332c-0.413-0.902-1.017-1.59-1.796-2.079-0.772-0.482-1.697-0.726-2.783-0.726-1.040 0-1.98 0.245-2.806 0.726s-1.475 1.177-1.949 2.079c-0.474 0.887-0.703 1.926-0.703 3.127 0 1.185 0.237 2.225 0.703 3.127 0.474 0.887 1.124 1.567 1.949 2.056s1.766 0.726 2.806 0.726c1.086 0 2.011-0.237 2.783-0.703 0.787-0.482 1.384-1.177 1.796-2.079h2.332c-0.558 1.43-1.445 2.53-2.653 3.318-1.215 0.772-2.63 1.154-4.258 1.154-1.384 0-2.645-0.321-3.792-0.963-1.124-0.657-2.018-1.559-2.676-2.721s-0.986-2.469-0.986-3.922zM24.455 32c-1.384 0-2.645-0.321-3.792-0.963-1.139-0.657-2.049-1.559-2.721-2.721-0.657-1.17-0.986-2.484-0.986-3.937s0.329-2.76 0.986-3.914c0.673-1.17 1.575-2.079 2.721-2.721 1.139-0.657 2.408-0.986 3.792-0.986 1.399 0 2.668 0.329 3.807 0.986 1.139 0.642 2.041 1.544 2.699 2.699s0.986 2.469 0.986 3.937c0 1.468-0.329 2.783-0.986 3.937s-1.552 2.064-2.699 2.721c-1.139 0.642-2.408 0.963-3.807 0.963zM24.455 30.303c1.040 0 1.98-0.245 2.806-0.726 0.841-0.482 1.498-1.177 1.972-2.079 0.482-0.902 0.726-1.942 0.726-3.127 0-1.2-0.245-2.24-0.726-3.127-0.474-0.902-1.124-1.59-1.949-2.079-0.826-0.482-1.766-0.726-2.828-0.726-1.055 0-1.995 0.245-2.828 0.726-0.826 0.482-1.483 1.177-1.972 2.079-0.474 0.887-0.703 1.926-0.703 3.127 0 1.185 0.237 2.225 0.703 3.127 0.482 0.902 1.139 1.59 1.972 2.079 0.841 0.489 1.789 0.726 2.828 0.726zM34.217 24.378c0-1.452 0.329-2.76 0.986-3.914 0.657-1.17 1.552-2.087 2.676-2.737 1.139-0.657 2.408-0.986 3.792-0.986 1.628 0 3.050 0.39 4.258 1.177 1.215 0.787 2.095 1.896 2.653 3.341h-2.332c-0.413-0.902-1.017-1.59-1.796-2.079-0.772-0.482-1.697-0.726-2.783-0.726-1.040 0-1.98 0.245-2.806 0.726s-1.475 1.177-1.949 2.079c-0.474 0.887-0.703 1.926-0.703 3.127 0 1.185 0.237 2.225 0.703 3.127 0.474 0.887 1.124 1.567 1.949 2.056 0.826 0.482 1.766 0.726 2.806 0.726 1.086 0 2.011-0.237 2.783-0.703 0.787-0.482 1.384-1.177 1.796-2.079h2.332c-0.558 1.43-1.445 2.53-2.653 3.318-1.215 0.772-2.63 1.154-4.258 1.154-1.384 0-2.645-0.321-3.792-0.963-1.124-0.657-2.018-1.559-2.676-2.721s-0.986-2.469-0.986-3.922zM60.002 31.847l-6.146-6.804v6.804h-1.949v-14.922h1.949v6.911l6.162-6.911h2.462l-6.765 7.469 6.827 7.446h-2.538zM74.335 16.925v1.582h-4.067v13.332h-1.949v-13.324h-4.090v-1.582h10.106zM85.978 28.529h-6.505l-1.2 3.318h-2.056l5.397-14.83h2.248l5.374 14.83h-2.056l-1.2-3.318zM85.42 26.947l-2.699-7.537-2.699 7.538h5.397zM93.959 16.925v14.922h-1.949v-14.922h1.949zM99.654 30.265h5.221v1.582h-7.171v-14.922h1.949v13.34zM112.099 32c-0.986 0-1.873-0.168-2.653-0.512-0.772-0.359-1.376-0.841-1.819-1.452-0.443-0.627-0.673-1.345-0.688-2.163h2.079c0.069 0.696 0.359 1.292 0.856 1.774 0.512 0.474 1.254 0.703 2.225 0.703 0.925 0 1.659-0.229 2.186-0.688 0.543-0.474 0.81-1.070 0.81-1.796 0-0.573-0.161-1.032-0.474-1.391s-0.703-0.627-1.177-0.81c-0.474-0.183-1.108-0.382-1.903-0.596-0.986-0.26-1.774-0.512-2.377-0.772-0.581-0.26-1.093-0.657-1.521-1.2-0.413-0.558-0.619-1.3-0.619-2.225 0-0.81 0.206-1.537 0.619-2.163s0.994-1.116 1.735-1.452c0.757-0.344 1.621-0.512 2.591-0.512 1.399 0 2.538 0.352 3.425 1.047 0.902 0.696 1.407 1.628 1.521 2.783h-2.14c-0.069-0.573-0.375-1.070-0.902-1.498-0.527-0.443-1.231-0.665-2.095-0.665-0.81 0-1.475 0.214-1.988 0.642-0.512 0.413-0.772 1.001-0.772 1.758 0 0.543 0.153 0.986 0.451 1.33 0.313 0.344 0.696 0.604 1.131 0.795 0.459 0.168 1.093 0.375 1.903 0.596 0.986 0.268 1.774 0.543 2.377 0.81 0.596 0.26 1.116 0.665 1.544 1.223 0.428 0.543 0.642 1.284 0.642 2.225 0 0.726-0.191 1.414-0.581 2.056-0.382 0.642-0.956 1.162-1.712 1.559-0.757 0.39-1.644 0.596-2.676 0.596z">
            </path>
            <path fill="#FE7031" style="fill: var(--color1, #FE7031)"
                d="M93.003 15.587l-7.981-7.645h15.908l-7.927 7.645z"></path>
        </symbol>
        <symbol id="search" viewBox="0 0 20 20">
            <path
                d="M12.9 14.32c-1.34 1.049-3.050 1.682-4.908 1.682-4.418 0-8-3.582-8-8s3.582-8 8-8c4.418 0 8 3.582 8 8 0 1.858-0.633 3.567-1.695 4.925l0.013-0.018 5.35 5.33-1.42 1.42-5.33-5.34zM8 14c3.314 0 6-2.686 6-6s-2.686-6-6-6v0c-3.314 0-6 2.686-6 6s2.686 6 6 6v0z">
            </path>
        </symbol>
        <symbol id="icon-instagram" viewBox="0 0 32 32">
            <path
                d="M31.969 9.408c-.075-1.7-.35-2.869-.744-3.882-.406-1.075-1.032-2.038-1.851-2.838-.8-.813-1.769-1.444-2.832-1.844C25.523.45 24.36.175 22.66.1 20.947.019 20.403 0 16.059 0s-4.888.019-6.595.094c-1.7.075-2.869.35-3.882.744-1.075.406-2.038 1.031-2.838 1.85C1.931 3.488 1.3 4.457.9 5.52.506 6.539.231 7.702.156 9.402c-.081 1.713-.1 2.257-.1 6.601s.019 4.888.094 6.595c.075 1.7.35 2.869.744 3.882.406 1.075 1.038 2.038 1.85 2.838.8.813 1.769 1.444 2.832 1.844 1.019.394 2.182.669 3.882.744 1.706.075 2.25.094 6.595.094s4.888-.019 6.595-.094c1.7-.075 2.869-.35 3.882-.744 2.151-.832 3.851-2.532 4.682-4.682.394-1.019.669-2.182.744-3.882.075-1.707.094-2.251.094-6.595s-.006-4.888-.081-6.595zm-2.882 13.065c-.069 1.563-.331 2.407-.55 2.969-.538 1.394-1.644 2.5-3.038 3.038-.563.219-1.413.481-2.969.55-1.688.075-2.194.094-6.464.094s-4.782-.019-6.464-.094c-1.563-.069-2.407-.331-2.969-.55-.694-.256-1.325-.663-1.838-1.194-.531-.519-.938-1.144-1.194-1.838-.219-.563-.481-1.413-.55-2.969-.075-1.688-.094-2.194-.094-6.464s.019-4.782.094-6.464c.069-1.563.331-2.407.55-2.969.256-.694.663-1.325 1.2-1.838.519-.531 1.144-.938 1.838-1.194.563-.219 1.413-.481 2.969-.55 1.688-.075 2.194-.094 6.464-.094 4.276 0 4.782.019 6.464.094 1.563.069 2.407.331 2.969.55.694.256 1.325.662 1.838 1.194.531.519.938 1.144 1.194 1.838.219.563.481 1.413.55 2.969.075 1.688.094 2.194.094 6.464s-.019 4.77-.094 6.458z" />
            <path
                d="M16.059 7.783c-4.538 0-8.22 3.682-8.22 8.22s3.682 8.22 8.22 8.22c4.539 0 8.22-3.682 8.22-8.22s-3.682-8.22-8.22-8.22zm0 13.552c-2.944 0-5.332-2.388-5.332-5.332s2.388-5.332 5.332-5.332 5.332 2.388 5.332 5.332-2.388 5.332-5.332 5.332zM26.524 7.458c0 1.06-.859 1.919-1.919 1.919s-1.919-.859-1.919-1.919.859-1.919 1.919-1.919 1.919.859 1.919 1.919z" />
        </symbol>
        <symbol id="icon-twitter" viewBox="0 0 32 32">
            <path
                d="M32 6.078c-1.19.522-2.458.868-3.78 1.036 1.36-.812 2.398-2.088 2.886-3.626-1.268.756-2.668 1.29-4.16 1.588C25.742 3.794 24.026 3 22.154 3c-3.632 0-6.556 2.948-6.556 6.562 0 .52.044 1.02.152 1.496-5.454-.266-10.28-2.88-13.522-6.862-.566.982-.898 2.106-.898 3.316 0 2.272 1.17 4.286 2.914 5.452-1.054-.02-2.088-.326-2.964-.808v.072c0 3.188 2.274 5.836 5.256 6.446-.534.146-1.116.216-1.72.216-.42 0-.844-.024-1.242-.112.85 2.598 3.262 4.508 6.13 4.57-2.232 1.746-5.066 2.798-8.134 2.798-.538 0-1.054-.024-1.57-.09C2.906 27.93 6.35 29 10.064 29c12.072 0 18.672-10 18.672-18.668 0-.29-.01-.57-.024-.848C30.014 8.56 31.108 7.406 32 6.078z" />
        </symbol>
        <symbol id="icon-facebook" viewBox="0 0 32 32">
            <path
                d="M21.329 5.313h2.921V.225C23.746.156 22.013 0 19.994 0c-4.212 0-7.097 2.649-7.097 7.519V12H8.249v5.688h4.648V32h5.699V17.689h4.46l.708-5.688h-5.169V8.082c.001-1.644.444-2.769 2.735-2.769z" />
        </symbol>
        <symbol id="icon-linkedin" viewBox="0 0 32 32">
            <path
                d="M31.992 32v-.001H32V20.263c0-5.741-1.236-10.164-7.948-10.164-3.227 0-5.392 1.771-6.276 3.449h-.093v-2.913h-6.364v21.364h6.627V21.42c0-2.785.528-5.479 3.977-5.479 3.399 0 3.449 3.179 3.449 5.657v10.401h6.62zM.528 10.636h6.635V32H.528V10.636zM3.843 0C1.722 0 0 1.721 0 3.843s1.721 3.879 3.843 3.879c2.121 0 3.843-1.757 3.843-3.879C7.685 1.722 5.963 0 3.843 0z" />
        </symbol>
    </defs>
</svg>